<svg xmlns="http://www.w3.org/2000/svg" viewBox="0 0 17 15">
    <path d="M8.51266 8.19717L2.7448 13.7753C2.34614 14.1608 1.70149 14.1608 1.30707 13.7753L0.348593 12.8483C-0.0500678 12.4628 -0.0500677 11.8394 0.348593 11.4579L4.43275 7.4999L0.344354 3.546C-0.054307 3.16045 -0.0543069 2.53701 0.344354 2.15557L1.30283 1.22451C1.7015 0.838965 2.34614 0.838965 2.74056 1.22451L8.50841 6.80264C8.91132 7.18818 8.91132 7.81162 8.51266 8.19717ZM16.6555 6.80264L10.8877 1.22451C10.489 0.838966 9.84435 0.838966 9.44993 1.22451L8.49145 2.15147C8.09279 2.53701 8.09279 3.16045 8.49145 3.5419L12.5756 7.4999L8.48721 11.4538C8.08855 11.8394 8.08855 12.4628 8.48721 12.8442L9.44569 13.7753C9.84435 14.1608 10.489 14.1608 10.8834 13.7753L16.6513 8.19717C17.0542 7.81162 17.0542 7.18818 16.6555 6.80264Z"/>
</svg>
