<svg width="24" height="24" viewBox="0 0 24 24" xmlns="http://www.w3.org/2000/svg">
<path d="M20 22V20.5C20 19.9477 19.5523 19.5 19 19.5C18.4477 19.5 18 19.9477 18 20.5V22H6L6 2H18V3.5C18 4.05228 18.4477 4.5 19 4.5C19.5523 4.5 20 4.05229 20 3.5V2C20 0.895431 19.1046 0 18 0H6C4.89543 0 4 0.895431 4 2V22C4 23.1046 4.89543 24 6 24H18C19.1046 24 20 23.1046 20 22Z"/>
<path d="M22.7071 11.2929L18.7071 7.29289C18.3166 6.90237 17.6834 6.90237 17.2929 7.29289C16.9024 7.68342 16.9024 8.31658 17.2929 8.70711L19.5858 11H11C10.4477 11 10 11.4477 10 12C10 12.5523 10.4477 13 11 13H19.5858L17.2929 15.2929C16.9024 15.6834 16.9024 16.3166 17.2929 16.7071C17.6834 17.0976 18.3166 17.0976 18.7071 16.7071L22.7071 12.7071C23.0976 12.3166 23.0976 11.6834 22.7071 11.2929Z"/>
</svg>
